<?xml version="1.0" encoding="utf-8"?>
<!-- Generator: Adobe Illustrator 15.0.0, SVG Export Plug-In . SVG Version: 6.00 Build 0)  -->
<!DOCTYPE svg PUBLIC "-//W3C//DTD SVG 1.1//EN" "http://www.w3.org/Graphics/SVG/1.1/DTD/svg11.dtd">
<svg version="1.1" id="Capa_1" xmlns="http://www.w3.org/2000/svg" xmlns:xlink="http://www.w3.org/1999/xlink" x="0px" y="0px"
	 width="342.29px" height="339.797px" viewBox="0 0 342.29 339.797" enable-background="new 0 0 342.29 339.797"
	 xml:space="preserve">
<g>
	<g>
		<g>
			<defs>
				<rect id="SVGID_1_" x="14.594" y="15.838" width="309.882" height="308.886"/>
			</defs>
			<clipPath id="SVGID_2_">
				<use xlink:href="#SVGID_1_"  overflow="visible"/>
			</clipPath>
			<path clip-path="url(#SVGID_2_)" fill="#FFFFFF" d="M229.56,15.838h1.587c12.414,3.979-1.735,17.111-3.175,24.945
				c8.711,11.249,20.922,17.032,30.781,25.479c9.836,8.434,19.283,17.832,28.122,28.135c16.18,18.839,33.172,45.022,36.633,76.432
				c6.195,56.254-18.292,96.678-42.997,125.263c-8.171,9.448-18.48,22.362-30.256,26.532c-23.077,8.182-45.266-8.751-40.335-30.78
				c2.914-13.048,14.033-21.641,24.945-31.312c19.863-17.613,41.656-35.484,47.238-65.286c3.286-17.567-0.811-33.115-7.428-46.711
				c-20.635-42.36-63.461-68.829-101.909-95.012c-5.074-3.449-14.867-8.323-14.332-14.326c0.781-8.75,23.147-12.008,32.377-14.332
				C205.677,21.116,218.417,18.709,229.56,15.838"/>
		</g>
		<g>
			<defs>
				<rect id="SVGID_3_" x="14.594" y="15.838" width="309.882" height="308.886"/>
			</defs>
			<clipPath id="SVGID_4_">
				<use xlink:href="#SVGID_3_"  overflow="visible"/>
			</clipPath>
			<path clip-path="url(#SVGID_4_)" fill="#FFFFFF" d="M151.535,63.078c36.08-6.601,27.989,50.801-3.718,38.218
				C132.247,95.118,131.361,66.775,151.535,63.078"/>
		</g>
		<g>
			<defs>
				<rect id="SVGID_5_" x="14.594" y="15.838" width="309.882" height="308.886"/>
			</defs>
			<clipPath id="SVGID_6_">
				<use xlink:href="#SVGID_5_"  overflow="visible"/>
			</clipPath>
			<path clip-path="url(#SVGID_6_)" fill="#FFFFFF" d="M14.594,213.292v-3.19c2.271-16.837,21.21-19.92,35.562-24.944
				c16.608-5.813,36.7-13.15,53.075-18.575c9.013-2.983,20.167-7.799,30.256-5.836c5.953,1.154,21.627,12.78,21.229,19.633
				c-0.462,8.021-16.786,12.442-24.944,16.454c-20.863,10.259-36.399,17.815-56.261,27.07c-9.864,4.598-19.033,11.228-29.728,12.211
				C25.354,237.815,18.289,226.893,14.594,213.292"/>
		</g>
		<g>
			<defs>
				<rect id="SVGID_7_" x="14.594" y="15.838" width="309.882" height="308.886"/>
			</defs>
			<clipPath id="SVGID_8_">
				<use xlink:href="#SVGID_7_"  overflow="visible"/>
			</clipPath>
			<path clip-path="url(#SVGID_8_)" fill="#FFFFFF" d="M204.08,186.748c2.633-0.235,6.021,0.182,7.438,1.593
				c5.571,5.577,1.56,29.316-2.127,35.562c-5.075,8.593-22.363,16.51-30.251,21.236c-21.127,12.633-43.812,25.396-64.759,37.68
				c-9.76,5.722-22.798,16.515-32.912,18.051c-25.058,3.783-38.252-24.218-23.353-40.873c6.989-7.806,24.385-14.282,35.034-19.634
				c32.077-16.132,58.98-30.335,90.762-45.117C189.934,192.443,197.321,187.363,204.08,186.748"/>
		</g>
	</g>
</g>
</svg>
