<?xml version="1.0" encoding="utf-8"?>
<!-- Generator: Adobe Illustrator 15.0.0, SVG Export Plug-In . SVG Version: 6.00 Build 0)  -->
<!DOCTYPE svg PUBLIC "-//W3C//DTD SVG 1.1//EN" "http://www.w3.org/Graphics/SVG/1.1/DTD/svg11.dtd">
<svg version="1.1" id="Capa_1" xmlns="http://www.w3.org/2000/svg" xmlns:xlink="http://www.w3.org/1999/xlink" x="0px" y="0px"
	 width="342.29px" height="339.797px" viewBox="0 0 342.29 339.797" enable-background="new 0 0 342.29 339.797"
	 xml:space="preserve">
<g id="qIJd7s_1_">
	<g>
		<path fill-rule="evenodd" clip-rule="evenodd" fill="#FFFFFF" d="M332.691,0c0.323,50.837,0.046,102.272,0.139,153.342
			c-51.856-9.692-103.926-19.174-155.696-28.951c-0.668-0.11,0.579-0.936,0.97-1.247c17.272-13.766,35.287-27.9,52.499-41.694
			c-16.507-11.055-36.857-19.142-63.581-17.87c-24.988,1.19-44.259,10.993-58.871,22.717
			c-14.781,11.861-26.961,28.024-33.798,47.929c-3.585,10.437-5.818,22.245-5.818,35.045c0,13.117,2.156,24.413,5.818,34.907
			c6.971,19.977,18.639,35.66,34.076,47.651c15.462,12.01,34.434,20.538,59.84,21.746c27,1.286,47.697-7.33,63.581-18.145
			c16.424-11.185,28.288-25.789,36.847-44.743c19.596,4.83,39.331,9.521,58.871,14.407c-11.627,30.945-30.676,55.613-54.993,73.969
			c-24.354,18.383-54.754,31.62-95.439,33.383c-3.002,0-6.002,0-9.003,0c-25.074-0.707-46.139-6.895-64.413-15.099
			c-18.329-8.229-33.992-19.308-47.096-32.414C30.343,258.656,10.604,224.453,8,174.673c0-3.508,0-7.019,0-10.527
			c0.488-9.269,1.39-18.335,3.048-26.596c4.873-24.287,14.142-43.968,26.18-61.502c15.793-23.003,37.242-41.667,62.75-54.3
			c12.789-6.333,27.57-11.689,43.91-14.544c16.756-2.928,36.279-3.372,54.022-0.555c33.437,5.31,58.881,19.209,80.48,36.569
			C296.488,28.809,314.695,14.51,332.691,0z"/>
	</g>
</g>
</svg>
